<?xml version="1.0" encoding="utf-8"?>
<!DOCTYPE svg PUBLIC "-//W3C//DTD SVG 1.0//EN" "http://www.w3.org/TR/2001/REC-SVG-20010904/DTD/svg10.dtd">
<svg version="1.0" xmlns="http://www.w3.org/2000/svg" width="753px" height="1375px" viewBox="0 0 753 1375" preserveAspectRatio="xMidYMid meet">
 <g fill="#000000">
  <path d="M308 1373.4 c-1.9 -0.2 -8.4 -0.9 -14.5 -1.5 -112.8 -11.2 -204.3 -70.6 -251.8 -163.6 -23.5 -46.2 -36.1 -95 -39.7 -154.8 -0.8 -12.4 -1 -92.5 -0.8 -257.1 l0.3 -239.1 3 -4.9 c1.9 -3 4.9 -6 7.9 -7.9 l4.9 -3 67.6 0 67.6 0 4.2 2.2 c5.1 2.7 9.6 8.2 11.2 13.2 0.8 2.8 1.1 63.2 1.1 229.2 0 146.5 0.4 230.3 1 239.4 4.4 58.5 21.2 104.2 51.5 139.5 19.1 22.3 47.8 41 78.4 51 22.9 7.5 47 11 75.6 11 53.3 0 97.6 -13.6 132 -40.6 36.2 -28.3 60.7 -72.2 70 -125.5 5.1 -29 4.8 -15.5 5.4 -268.6 l0.6 -236.1 3 -4.3 c3.5 -5 8.2 -8.4 13.4 -9.9 5.4 -1.5 131.2 -1.3 136.2 0.2 5.2 1.5 11.7 7.3 14 12.2 1.8 4 1.9 17.5 1.9 397.5 l0 393.5 -2.1 4.3 c-2.3 4.7 -6.6 8.8 -11.9 11.2 -3.1 1.4 -11.3 1.6 -66.8 1.9 -41.1 0.2 -65.3 -0.1 -69 -0.8 -7.3 -1.3 -12.4 -4.8 -15.9 -10.7 -2.7 -4.6 -2.8 -5.5 -3.3 -20.9 -0.5 -15.7 -0.6 -16.2 -3.5 -21 -1.9 -3 -4.9 -6 -7.9 -7.9 -4.3 -2.6 -5.9 -3 -12.1 -3 -8.2 0 -8.7 0.3 -26.8 14 -40.5 30.7 -88.4 50 -145.7 58.7 -10.9 1.6 -19.4 2.1 -44.5 2.3 -17 0.2 -32.6 0.1 -34.5 -0.1z"/>
  <path d="M27.3 472 c-3 -1.2 -5.6 -5.5 -5.1 -8.3 0.4 -1.9 343.1 -453.9 349.1 -460.5 2.1 -2.2 6.9 -3 9.4 -1.4 2.2 1.4 349.3 458.6 349.9 460.9 1.6 5.9 -3.9 11.3 -9.4 9.2 -1.2 -0.5 -78.7 -42.5 -172.1 -93.4 -102 -55.6 -170.8 -92.5 -172.4 -92.5 -1.6 0 -70.7 37.1 -173.2 93 -93.9 51.1 -171.4 93.1 -172.3 93.4 -0.9 0.2 -2.7 0.1 -3.9 -0.4z"/>
 </g>
</svg>